<svg xmlns="http://www.w3.org/2000/svg" width="72" height="72" viewBox="0 0 72 72"><path fill="#A1B963" d="M0 0h72v72H0z"/><path fill="#fff" d="M53.738 28.714c.082.198.2.375.344.53l-6.317 6.318H44.13l2.042-2.04c.058.006.115.017.175.017.78 0 1.414-.634 1.414-1.415 0-.78-.633-1.413-1.413-1.413-.464 0-.87.226-1.13.57H42.36l2.568-2.57h8.81zm.18 14.725c-.14.203-.237.438-.282.692h-8.708l-2.57-2.568h2.89c.26.322.653.533 1.1.533.78 0 1.414-.633 1.414-1.413s-.634-1.413-1.414-1.413c-.07 0-.14.01-.21.022l-2.005-2.007h3.633l6.152 6.154zm10.226-8.793c-.667 0-1.24.372-1.545.916h-3.1l3.073-3.073-1.22-1.218-4.29 4.292H50.2l5.903-5.903c.62-.276 1.055-.896 1.055-1.62 0-.98-.796-1.777-1.777-1.777-.587 0-1.104.29-1.428.73h-7.3l4.85-4.853h6.07v-1.723h-4.346l2.19-2.19c.6.168 1.27.025 1.74-.446.694-.693.694-1.818 0-2.512-.693-.694-1.82-.694-2.513 0-.472.472-.615 1.14-.445 1.74l-2.19 2.19v-4.345h-1.724v6.07l-4.853 4.85v-7.608c.345-.324.562-.78.562-1.29 0-.98-.796-1.777-1.777-1.777-.894 0-1.626.663-1.75 1.522l-5.605 5.603V15.36l4.292-4.29-1.22-1.22-3.072 3.074v-3.1c.544-.303.916-.877.916-1.544 0-.98-.796-1.777-1.777-1.777s-1.778.795-1.778 1.777c0 .667.372 1.24.915 1.545v3.1L32.064 9.85l-1.218 1.22 4.29 4.29v6.863l-5.573-5.574c-.112-.875-.85-1.553-1.754-1.553-.982 0-1.778.796-1.778 1.777 0 .497.205.945.534 1.268v7.63l-4.852-4.852v-6.07H19.99v4.347l-2.19-2.19c.17-.6.027-1.27-.445-1.74-.694-.695-1.82-.695-2.513 0s-.694 1.818 0 2.512c.472.47 1.14.614 1.74.444l2.19 2.19h-4.345v1.724h6.07l4.85 4.852h-7.274c-.323-.44-.84-.73-1.43-.73-.98 0-1.776.796-1.776 1.778 0 .7.408 1.3.996 1.59l5.934 5.933h-6.862l-4.292-4.29-1.218 1.217 3.073 3.073H9.4c-.303-.543-.877-.916-1.544-.916-.98 0-1.777.795-1.777 1.777S6.873 38.2 7.855 38.2c.667 0 1.24-.372 1.545-.916h3.1l-3.073 3.073 1.218 1.218 4.292-4.29H21.8l-5.38 5.378c-.874.113-1.55.852-1.55 1.756 0 .98.794 1.776 1.776 1.776.388 0 .745-.127 1.037-.34h7.667l-4.852 4.854h-6.07v1.723h4.347l-2.19 2.19c-.6-.17-1.27-.026-1.74.445-.695.693-.695 1.818 0 2.513s1.818.694 2.512 0c.472-.472.615-1.14.445-1.74l2.19-2.19v4.346h1.724v-6.07l4.852-4.852v7.268c-.33.322-.534.77-.534 1.268 0 .982.795 1.777 1.777 1.777.725 0 1.344-.434 1.622-1.054l5.708-5.707v6.862l-4.29 4.29 1.217 1.22 3.073-3.073v3.1c-.543.303-.915.877-.915 1.545 0 .98.795 1.777 1.777 1.777s1.777-.797 1.777-1.777c0-.668-.373-1.242-.917-1.546v-3.098l3.073 3.072 1.22-1.218-4.293-4.292v-6.86l5.708 5.707c.278.62.898 1.055 1.62 1.055.982 0 1.778-.795 1.778-1.777 0-.496-.205-.945-.534-1.268v-7.267l4.853 4.852v6.07h1.723V53.65l2.19 2.19c-.17.6-.025 1.27.446 1.74.693.694 1.82.694 2.513 0 .693-.694.693-1.82 0-2.513-.473-.472-1.142-.615-1.74-.445l-2.19-2.19h4.345v-1.724h-6.07l-4.852-4.853h7.662c.298.227.665.366 1.068.366.98 0 1.777-.795 1.777-1.776 0-.904-.678-1.643-1.552-1.754l-5.405-5.406h6.862l4.29 4.29 1.22-1.217-3.075-3.072h3.1c.304.544.877.916 1.544.916.98 0 1.777-.795 1.777-1.776s-.795-1.777-1.776-1.777zM39.418 44.674l-2.557-2.556v-3.614l2.558 2.557v3.614zm-6.835-16.5l2.556 2.555v3.614l-2.557-2.556v-3.615zm5.497 7.39l2.556-2.557h3.614l-2.556 2.556H38.08zm1.338-7.39v3.614l-2.557 2.556V30.73l2.558-2.557zm-5.498 7.39h-3.614l-2.556-2.557h3.615l2.555 2.556zm0 1.72l-2.556 2.558H27.75l2.556-2.557h3.614zm-1.337 7.39V41.06l2.556-2.556v3.615l-2.557 2.554zm5.497-7.39h3.614l2.557 2.558h-3.614l-2.556-2.557zm5.115-18.958c.154.108.33.188.515.244v8.927l-2.57 2.57v-2.894c.334-.26.553-.66.553-1.113 0-.78-.633-1.414-1.413-1.414s-1.414.633-1.414 1.414c0 .072.01.14.02.21l-2.024 2.024V24.66l6.333-6.334zm-14.904.252c.19-.054.37-.13.527-.24l6.322 6.322v3.634l-2.026-2.025c.01-.07.02-.14.02-.21 0-.78-.632-1.414-1.413-1.414-.78 0-1.413.633-1.413 1.414 0 .455.218.855.552 1.114v2.893l-2.57-2.57v-8.92zm-10.358 10.68c.15-.157.272-.34.356-.544h8.784l2.57 2.57H26.78c-.258-.344-.665-.57-1.127-.57-.78 0-1.414.634-1.414 1.415s.632 1.413 1.413 1.413c.06 0 .12-.01.178-.018l2.04 2.038h-3.634l-6.304-6.304zm.462 14.875c-.043-.264-.14-.51-.285-.72l6.126-6.128h3.634l-2.007 2.007c-.07-.01-.138-.02-.21-.02-.78 0-1.413.632-1.413 1.412s.633 1.413 1.414 1.413c.446 0 .84-.21 1.098-.533h2.89l-2.57 2.568h-8.678zm10.622 10.18c-.203-.19-.45-.328-.725-.405v-8.556l2.57-2.568v2.857c-.333.26-.55.66-.55 1.112 0 .78.633 1.414 1.413 1.414s1.414-.633 1.414-1.414c0-.06-.01-.118-.018-.177l2.02-2.02v3.633l-6.124 6.124zm14.694-.406c-.274.077-.522.216-.726.404L36.86 48.19v-3.634l2.022 2.02c-.007.06-.018.117-.018.177 0 .782.633 1.415 1.414 1.415.78 0 1.413-.633 1.413-1.414 0-.453-.218-.853-.55-1.112v-2.855l2.568 2.568v8.557z"/></svg>