<svg xmlns="http://www.w3.org/2000/svg" width="72" height="72" viewBox="0 0 72 72"><g fill="#fff"><path d="M37.477.32zM52.636 9.382c-1.465-2.726-3.683-5.097-6.56-6.758-.33-.19-.67-.37-1.01-.53-.432-.214-.87-.4-1.31-.574-.096-.038-.19-.076-.286-.11-.434-.163-.87-.31-1.31-.434-.067-.02-.138-.036-.208-.055-.403-.108-.81-.202-1.216-.28-.078-.016-.155-.033-.233-.047-.445-.08-.89-.14-1.337-.185-.094-.01-.19-.016-.283-.024-.44-.036-.88-.06-1.318-.062L37.502.32H37.474c-.444 0-.887.022-1.33.057-.118.01-.235.02-.354.032-.385.037-.77.086-1.15.15-.07.012-.144.02-.216.033-.438.08-.872.177-1.302.29-.113.028-.226.062-.34.094-.35.1-.7.208-1.044.33-.094.033-.19.063-.284.097-.415.154-.823.324-1.225.51-.1.044-.197.094-.295.142-.327.158-.648.326-.965.504-.1.057-.2.11-.298.168-.384.227-.76.467-1.127.724-.075.052-.146.108-.22.162-.305.22-.603.453-.894.695-.093.077-.187.153-.28.233-.343.298-.68.608-1 .935-.042.043-.08.09-.122.132-.284.296-.558.605-.822.924l-.24.293c-.292.37-.578.75-.843 1.147-.213.31-.417.634-.61.965l-4.5 7.793c-.385.668-.61 1.387-.68 2.11-.197 1.99.758 3.996 2.603 5.06.188.11.38.2.573.283.058.025.116.046.175.07.142.054.285.102.43.143.062.018.123.036.185.05.176.045.353.08.53.105.023.003.047.01.07.012.2.026.4.037.6.04l.06.002c.04 0 .077-.007.116-.01.15-.002.3-.012.45-.028.062-.007.125-.013.187-.022.178-.026.354-.06.528-.104.023-.006.046-.01.07-.015.193-.05.384-.116.57-.19.055-.02.107-.045.162-.068.138-.06.273-.125.405-.196.054-.03.11-.058.163-.09.165-.096.326-.2.48-.314l.032-.022c.164-.123.318-.26.467-.403.043-.042.084-.086.126-.13.108-.11.212-.23.312-.35.04-.05.08-.098.118-.148.128-.17.25-.348.36-.538l3.934-6.813.566-.982c1.25-2.163 3.523-3.373 5.858-3.373 1.145 0 2.304.29 3.362.902.313.18.597.38.87.596 2.54 2.048 3.28 5.714 1.602 8.624l-.18.312-6.365 11.02-6.035 10.453-6.692 11.59-5.48 9.49c-.27.467-.456.958-.577 1.45-.495 2.192.452 4.54 2.5 5.722.828.48 1.73.706 2.62.706 1.814 0 3.577-.94 4.55-2.627l4.364-7.56L38.37 50.47h-.002l6.87-11.897 5.857-10.146 1.294-2.24c1.46-2.535 2.205-5.292 2.293-8.04.106-3.045-.61-6.082-2.047-8.765zm-10.005 1.76c-.346-.277-.69-.515-1.054-.724-1.25-.72-2.672-1.103-4.112-1.103-2.946 0-5.688 1.58-7.158 4.123l-1.316 2.28-10.045 2.69c.084-.318.197-.63.368-.926l4.5-7.794c.17-.297.355-.59.558-.883.343-.514.715-1 1.11-1.463l17.236-4.618c.577.207 1.146.447 1.708.725.306.144.61.304.903.474 2.432 1.404 4.43 3.43 5.81 5.86L43.4 11.858c-.242-.25-.494-.494-.77-.715zM26.34 68.305c-.667 1.158-1.912 1.878-3.25 1.878-.652 0-1.3-.175-1.87-.506-1.434-.827-2.152-2.47-1.794-4.064.073-.296.183-.57.31-.83l10.22-2.738-3.615 6.26zm-.265-14.538l6.364-11.02L42.683 40 36.32 51.022l-10.245 2.744zM51.09 25.438l-2.043 3.54-10.243 2.745 5.793-10.035c.18-.312.328-.633.463-.96l8.096-2.168c-.15 2.41-.856 4.78-2.066 6.878z"/></g></svg>