<svg xmlns="http://www.w3.org/2000/svg" width="129" height="60" viewBox="0 0 129 60"><path fill="#fff" d="M16.337 31.064s-2.256-.195-3.072-.195c-2.208 0-2.353.96-2.353 2.495V36.1h5.04v5.666h-5.04V59H4V41.767H.448v-5.665H4v-3.504c0-4.8 2.256-7.49 7.92-7.49 1.97 0 4.418.5 4.418.5v5.456zm9.464 18.67v.673c0 2.688 1.057 3.408 4.226 3.408 2.16 0 5.04-.384 7.104-1.008l1.008 5.185c-2.112.768-5.52 1.488-8.785 1.488-7.585 0-10.465-3.744-10.465-9.506v-5.472c0-5.04 2.256-9.36 10.033-9.36 7.777 0 9.458 4.607 9.458 9.696v4.896H25.8zm6.05-6.19c0-1.634-.48-2.978-2.88-2.978s-3.168 1.344-3.168 2.977v1.008h6.05v-1.007zM50.075 59.48c-2.544 0-6.193-.625-8.497-1.393l1.104-5.137c1.92.576 4.464 1.057 7.057 1.057 2.063 0 2.4-.576 2.4-1.97 0-1.487-.05-1.68-3.793-2.59-5.665-1.394-6.193-2.93-6.193-7.298 0-4.945 1.92-7.01 8.93-7.01 1.775 0 5.04.24 7.104.77l-.624 5.376c-2.064-.385-4.608-.673-6.433-.673-2.015 0-2.496.528-2.496 1.585 0 1.44.192 1.63 2.977 2.256 6.673 1.488 7.153 2.928 7.153 7.584 0 4.802-2.015 7.442-8.688 7.442zm22.152 0c-2.496 0-6.288-.24-9.504-.77V26.07l6.913-.96v11.328c1.873-.72 4.08-1.295 6.625-1.295 5.185 0 7.202 3.216 7.202 8.448v6.05c0 5.567-1.585 9.84-11.235 9.84zm-2.592-6.097c1.008.097 1.873.097 2.832.097 3.457 0 4.08-1.584 4.08-3.792v-6.05c0-1.535-.672-2.495-2.496-2.495-1.487 0-3.118.624-4.415 1.296v10.943zm24.83-17.76v15.456c0 1.055.48 1.68 1.68 1.68 1.248 0 3.553-.864 5.04-1.68V35.62h6.913V59h-5.137l-.72-1.776c-2.88 1.392-6.623 2.257-9.313 2.257-3.984 0-5.377-2.976-5.377-7.488v-16.37h6.915zm24.64 14.448c0 2.4 1.007 3.506 3.79 3.506 1.777 0 3.12-.193 4.8-.576l.866 5.76c-2.353.528-4.032.72-5.665.72-7.584 0-10.705-2.83-10.705-9.505v-5.328c0-6.672 3.12-9.504 10.705-9.504 1.633 0 3.313.19 5.666.72l-.864 5.76c-1.44-.335-3.455-.575-4.8-.575-2.784 0-3.792 1.104-3.792 3.504v5.52zM65 7c-.678 0-1.296.233-1.798.612C59.042 2.796 53.01.08 46.748.08c-2.08 0-4.18.298-6.25.918C31.885 3.583 25.827 11.17 25.084 20H25c-1.1 0-2 .9-2 2v8c0 1.1.9 2 2 2h28c1.1 0 2-.9 2-2v-8c0-1.04-.806-1.89-1.823-1.982.784-4.705 4.296-8.474 8.86-9.635C62.23 11.857 63.476 13 65 13c1.656 0 3-1.343 3-3s-1.344-3-3-3zM51.143 20H27.086c.747-7.907 6.272-14.772 13.988-17.086 1.846-.554 3.755-.835 5.674-.835 5.615 0 10.863 2.35 14.57 6.412C56.004 9.942 51.94 14.45 51.143 20z"/></svg>